<?xml version="1.0" encoding="UTF-8"?><svg id="b" xmlns="http://www.w3.org/2000/svg" xmlns:xlink="http://www.w3.org/1999/xlink" viewBox="0 0 280 208.91"><defs><style>.e{fill:url(#d);}.f{fill:#f5f5f5;}</style><linearGradient id="d" x1="-122.11" y1="301.14" x2="-121.38" y2="-217.11" gradientTransform="translate(262 300.98) scale(1 -1)" gradientUnits="userSpaceOnUse"><stop offset="0" stop-color="#00dbb6"/><stop offset=".65" stop-color="#4b8df1"/></linearGradient></defs><g id="c"><path class="e" d="M0,24C0,10.75,10.75,0,24,0h232c13.26,0,24,10.75,24,24v108c0,13.26-10.74,24-24,24H97.5l-39.21,49.84c-4.7,5.97-14.29,2.65-14.29-4.95v-44.89H24c-13.25,0-24-10.74-24-24V24Z"/><path class="f" d="M46.4,107V51.56h37.12v10.48h-24.64v11.6h21.92v10.48h-21.92v22.88h-12.48Z"/><path class="f" d="M125.63,107c-.59-1.92-1.25-3.89-2-5.92-.69-2.03-1.39-4.05-2.08-6.08h-21.6c-.69,2.03-1.41,4.05-2.16,6.08-.69,2.03-1.33,4-1.92,5.92h-12.96c2.08-5.97,4.05-11.49,5.92-16.56,1.87-5.07,3.68-9.84,5.44-14.32,1.81-4.48,3.57-8.72,5.28-12.72,1.76-4.05,3.57-8,5.44-11.84h11.92c1.81,3.84,3.6,7.79,5.36,11.84,1.76,4,3.52,8.24,5.28,12.72,1.81,4.48,3.65,9.25,5.52,14.32,1.87,5.07,3.84,10.59,5.92,16.56h-13.36Zm-14.96-42.88c-.27,.8-.67,1.89-1.2,3.28-.53,1.39-1.15,2.99-1.84,4.8-.69,1.81-1.47,3.81-2.32,6-.8,2.19-1.63,4.48-2.48,6.88h15.76c-.85-2.4-1.68-4.69-2.48-6.88-.8-2.19-1.57-4.19-2.32-6-.69-1.81-1.31-3.41-1.84-4.8-.53-1.39-.96-2.48-1.28-3.28Z"/><path class="f" d="M154.61,79.24c0,2.72,.32,5.17,.96,7.36,.69,2.19,1.65,4.08,2.88,5.68,1.28,1.55,2.83,2.75,4.64,3.6,1.81,.85,3.89,1.28,6.24,1.28s4.35-.43,6.16-1.28c1.87-.85,3.41-2.05,4.64-3.6,1.28-1.6,2.24-3.49,2.88-5.68,.69-2.19,1.04-4.64,1.04-7.36s-.35-5.17-1.04-7.36c-.64-2.24-1.6-4.13-2.88-5.68-1.23-1.6-2.77-2.83-4.64-3.68-1.81-.85-3.87-1.28-6.16-1.28s-4.43,.45-6.24,1.36c-1.81,.85-3.36,2.08-4.64,3.68-1.23,1.55-2.19,3.44-2.88,5.68-.64,2.19-.96,4.61-.96,7.28Zm42.32,0c0,3.89-.48,7.41-1.44,10.56-.96,3.09-2.32,5.81-4.08,8.16-1.71,2.35-3.76,4.29-6.16,5.84-2.4,1.55-5.04,2.67-7.92,3.36,.27,1.07,.85,1.92,1.76,2.56,.91,.69,2.05,1.25,3.44,1.68,1.39,.43,2.99,.75,4.8,.96,1.87,.21,3.87,.4,6,.56l-2.56,9.12c-4.16-.16-7.73-.59-10.72-1.28-2.93-.64-5.44-1.55-7.52-2.72-2.03-1.17-3.65-2.61-4.88-4.32-1.17-1.71-2.08-3.68-2.72-5.92-3.31-.43-6.37-1.33-9.2-2.72-2.83-1.44-5.28-3.36-7.36-5.76-2.08-2.4-3.71-5.28-4.88-8.64-1.17-3.36-1.76-7.17-1.76-11.44,0-4.75,.75-8.91,2.24-12.48,1.49-3.63,3.49-6.67,6-9.12,2.56-2.45,5.49-4.29,8.8-5.52,3.36-1.23,6.88-1.84,10.56-1.84s7.36,.61,10.72,1.84c3.36,1.23,6.29,3.07,8.8,5.52,2.51,2.45,4.48,5.49,5.92,9.12,1.44,3.57,2.16,7.73,2.16,12.48Z"/><path class="f" d="M218.62,98.44c2.19,0,3.73-.21,4.64-.64,.91-.43,1.36-1.25,1.36-2.48,0-.96-.59-1.79-1.76-2.48-1.17-.75-2.96-1.57-5.36-2.48-1.87-.69-3.57-1.41-5.12-2.16-1.49-.75-2.77-1.63-3.84-2.64-1.07-1.07-1.89-2.32-2.48-3.76-.59-1.44-.88-3.17-.88-5.2,0-3.95,1.47-7.07,4.4-9.36,2.93-2.29,6.96-3.44,12.08-3.44,2.56,0,5.01,.24,7.36,.72,2.35,.43,4.21,.91,5.6,1.44l-2.08,9.28c-1.39-.48-2.91-.91-4.56-1.28-1.6-.37-3.41-.56-5.44-.56-3.73,0-5.6,1.04-5.6,3.12,0,.48,.08,.91,.24,1.28,.16,.37,.48,.75,.96,1.12,.48,.32,1.12,.69,1.92,1.12,.85,.37,1.92,.8,3.2,1.28,2.61,.96,4.77,1.92,6.48,2.88,1.71,.91,3.04,1.92,4,3.04,1.01,1.07,1.71,2.27,2.08,3.6,.43,1.33,.64,2.88,.64,4.64,0,4.16-1.57,7.31-4.72,9.44-3.09,2.13-7.49,3.2-13.2,3.2-3.73,0-6.85-.32-9.36-.96-2.45-.64-4.16-1.17-5.12-1.6l2-9.68c2.03,.8,4.11,1.44,6.24,1.92,2.13,.43,4.24,.64,6.32,.64Z"/></g></svg>