<?xml version="1.0" encoding="UTF-8"?><svg id="b" xmlns="http://www.w3.org/2000/svg" xmlns:xlink="http://www.w3.org/1999/xlink" viewBox="0 0 160 112.91"><defs><style>.e{fill:url(#d);}.f{fill:#f5f5f5;}</style><linearGradient id="d" x1="-139.06" y1="333.06" x2="-138.64" y2="36.91" gradientTransform="translate(219 332.98) scale(1 -1)" gradientUnits="userSpaceOnUse"><stop offset="0" stop-color="#00dbb6"/><stop offset=".65" stop-color="#4b8df1"/></linearGradient></defs><g id="c"><path class="e" d="M0,24C0,10.75,10.75,0,24,0h112c13.26,0,24,10.75,24,24v41.14c0,13.25-10.74,24-24,24H55.71l-16.28,20.7c-4.7,5.97-14.29,2.65-14.29-4.95v-15.75h-1.14c-13.25,0-24-10.75-24-24V24Z"/><polygon class="f" points="52.71 36.62 52.71 31.94 33.66 31.94 33.66 57.14 39.5 57.14 39.5 47.96 51.16 47.96 51.16 43.28 39.5 43.28 39.5 36.62 52.71 36.62"/><path class="f" d="M74.43,57.14h6.12l-11.27-25.2h-5.76l-11.23,25.2h5.98l2.25-5.4h11.68l2.24,5.4Zm-12.08-9.83l4.01-9.64,4,9.64h-8.01Z"/><path class="f" d="M107.47,56.75c-1.2,1.25-2.57,1.87-4.1,1.87-.58,0-1.13-.11-1.66-.32-.5-.22-1.03-.59-1.58-1.12-.11-.11-.22-.22-.34-.34,.23-.08,.47-.14,.7-.23,1.68-.65,3.13-1.55,4.36-2.7,1.25-1.18,2.22-2.56,2.92-4.14,.7-1.61,1.04-3.35,1.04-5.22s-.35-3.64-1.04-5.22c-.7-1.58-1.67-2.95-2.92-4.1-1.22-1.18-2.68-2.09-4.36-2.74-1.66-.65-3.48-.97-5.47-.97s-3.79,.32-5.47,.97-3.14,1.56-4.39,2.74c-1.25,1.18-2.22,2.56-2.92,4.14-.67,1.58-1.01,3.31-1.01,5.18s.34,3.6,1.01,5.18c.7,1.58,1.66,2.96,2.88,4.14,1.25,1.18,2.71,2.09,4.39,2.74,1.1,.42,2.26,.69,3.47,.83,.79,.84,1.53,1.57,2.22,2.19,.94,.82,1.82,1.46,2.66,1.94,.86,.48,1.73,.83,2.59,1.04,.89,.22,1.82,.32,2.81,.32,2.83,0,5.1-1.03,6.8-3.1l-2.59-3.1Zm-18.11-6.37c-.7-.72-1.25-1.57-1.66-2.56-.38-1.01-.58-2.1-.58-3.28s.19-2.29,.58-3.28c.41-.98,.96-1.84,1.66-2.56,.72-.72,1.56-1.27,2.52-1.66,.96-.38,2-.58,3.13-.58s2.16,.19,3.1,.58c.96,.38,1.8,.94,2.52,1.66,.72,.72,1.27,1.57,1.66,2.56,.41,.98,.61,2.08,.61,3.28s-.2,2.27-.61,3.28c-.38,.98-.93,1.84-1.66,2.56-.72,.72-1.56,1.27-2.52,1.66-.94,.38-1.97,.58-3.1,.58s-2.17-.19-3.13-.58c-.96-.38-1.8-.94-2.52-1.66Z"/><path class="f" d="M119.31,57.43c-1.66,0-3.25-.19-4.79-.58-1.51-.41-2.71-.91-3.6-1.51l1.87-4.03c.89,.55,1.93,1.01,3.13,1.37,1.22,.34,2.42,.5,3.6,.5,1.3,0,2.21-.16,2.74-.47,.55-.31,.83-.74,.83-1.3,0-.46-.22-.79-.65-1.01-.41-.24-.96-.42-1.66-.54s-1.46-.24-2.3-.36c-.82-.12-1.64-.28-2.48-.47-.84-.22-1.61-.53-2.3-.94s-1.26-.96-1.69-1.66c-.41-.7-.61-1.6-.61-2.7,0-1.22,.35-2.3,1.04-3.24,.72-.94,1.75-1.67,3.1-2.2,1.34-.55,2.95-.83,4.82-.83,1.32,0,2.66,.14,4.03,.43,1.37,.29,2.51,.71,3.42,1.26l-1.87,4c-.94-.55-1.88-.92-2.84-1.12-.94-.22-1.85-.32-2.74-.32-1.25,0-2.16,.17-2.74,.5-.58,.34-.86,.77-.86,1.3,0,.48,.2,.84,.61,1.08,.43,.24,1,.43,1.69,.58,.7,.14,1.45,.28,2.27,.4,.84,.1,1.68,.25,2.52,.47,.84,.22,1.6,.53,2.27,.94,.7,.38,1.26,.92,1.69,1.62,.43,.67,.65,1.56,.65,2.66,0,1.2-.36,2.27-1.08,3.2-.72,.91-1.76,1.63-3.13,2.16-1.34,.53-2.99,.79-4.93,.79Z"/></g></svg>